<svg width="149" height="149" viewBox="0 0 149 149" fill="none" xmlns="http://www.w3.org/2000/svg">
<path d="M10.2456 62.5121C10.8727 62.5601 11.3979 62.8036 11.8214 63.2427C12.2448 63.6819 12.4354 64.1764 12.3933 64.7262C12.3505 65.2851 12.0915 65.7429 11.6162 66.0997C11.141 66.4564 10.5943 66.6112 9.97635 66.5639C9.35382 66.5163 8.82874 66.2705 8.40113 65.8265C7.97351 65.3824 7.78041 64.8901 7.82184 64.3493C7.86396 63.7995 8.12509 63.3441 8.60523 62.9832C9.08083 62.6219 9.62763 62.4649 10.2456 62.5121Z" fill="#143D48"/>
<path d="M19.0408 52.8756L9.80241 48.7682L12.1618 43.4732L13.098 43.9418L11.2394 48.1128L14.2627 49.457L16.0294 45.492L16.9726 45.9113L15.2059 49.8763L18.5665 51.3705L20.4862 47.062L21.4197 47.5369L19.0408 52.8756Z" fill="#143D48"/>
<path d="M29.1067 35.9022L28.2949 36.9938L22.9856 36.5614L24.8889 41.5742L24.122 42.6055L21.9479 36.6852L16.1372 36.4L16.9571 35.2974L21.7693 35.6079L20.1429 31.0132L20.8975 29.9984L22.8207 35.4771L29.1067 35.9022Z" fill="#143D48"/>
<path d="M34.3068 30.6537L33.3902 31.4435L26.7059 23.7038L29.2019 21.5529C29.5817 21.2257 29.9594 20.9693 30.3352 20.7839C30.711 20.5984 31.0879 20.4841 31.4662 20.4409C31.8444 20.3978 32.2167 20.4559 32.5832 20.6153C32.9497 20.7748 33.2894 21.0355 33.6021 21.3977C33.8613 21.6978 34.066 21.9906 34.2163 22.2762C34.3636 22.5583 34.4593 22.8609 34.5034 23.1838C34.5475 23.5068 34.5204 23.831 34.422 24.1564C34.3207 24.4783 34.1334 24.8262 33.8601 25.2001C33.5873 25.5675 33.2265 25.9446 32.7777 26.3313C32.4222 26.6377 31.9816 26.9783 31.4561 27.3529L34.3068 30.6537ZM32.1822 25.4639C32.5205 25.1723 32.7822 24.8897 32.9672 24.6159C33.1523 24.3421 33.267 24.1019 33.3113 23.8953C33.3591 23.6856 33.3522 23.472 33.2907 23.2543C33.2326 23.0336 33.1571 22.8521 33.0641 22.7096C32.9682 22.5636 32.8413 22.3993 32.6834 22.2165C32.3051 21.7784 31.8782 21.5839 31.4025 21.6328C30.9304 21.6787 30.4405 21.9203 29.9331 22.3577L28.3329 23.7366L30.8216 26.6182C31.4939 26.051 31.9474 25.6662 32.1822 25.4639Z" fill="#143D48"/>
<path d="M43.5622 23.6814L38.64 14.8502L39.6795 14.2721L44.0892 22.1838L47.9784 20.0208L48.4551 20.9603L43.5622 23.6814Z" fill="#143D48"/>
<path d="M53.3465 13.4365C53.6953 14.6877 54.257 15.591 55.0317 16.1466C55.8051 16.6977 56.7538 16.817 57.8778 16.5043C59.0018 16.1917 59.7479 15.601 60.116 14.7323C60.4885 13.8623 60.4998 12.7996 60.1497 11.5441C59.7924 10.2622 59.2276 9.34794 58.4554 8.80116C57.6876 8.25316 56.7483 8.13366 55.6375 8.44265C54.5266 8.75165 53.7778 9.34075 53.3909 10.21C53.004 11.0792 52.9892 12.1547 53.3465 13.4365ZM61.3681 11.2052C61.575 11.9471 61.6609 12.654 61.6258 13.326C61.5952 13.9968 61.4485 14.6076 61.1857 15.1584C60.9261 15.7037 60.5386 16.1804 60.0232 16.5887C59.5066 16.9926 58.8839 17.2959 58.155 17.4986C57.1715 17.7722 56.2704 17.7982 55.4516 17.5766C54.636 17.3493 53.9486 16.9114 53.3893 16.2628C52.8332 15.6087 52.4144 14.7767 52.1329 13.767C51.6984 12.2086 51.7619 10.8665 52.3233 9.74062C52.8846 8.61475 53.8964 7.84846 55.3584 7.44176C56.7985 7.04116 58.0514 7.18224 59.117 7.86501C60.1857 8.54216 60.9361 9.65555 61.3681 11.2052Z" fill="#143D48"/>
<path d="M70.9695 5.91685L71.0062 9.33463C71.193 9.33262 71.5781 9.33305 72.1615 9.33592C72.7495 9.33873 73.203 9.33843 73.522 9.33502C74.3923 9.32569 74.9969 9.17565 75.3356 8.8849C75.6742 8.58958 75.8402 8.12749 75.8334 7.49862C75.8275 6.94722 75.659 6.53885 75.3281 6.2735C74.9971 6.00815 74.4465 5.8796 73.6764 5.88785L70.9695 5.91685ZM77.548 15.0139L76.1809 15.0285L74.7524 11.8718C74.365 11.0237 74.118 10.5136 74.0113 10.3416C73.6789 10.3679 73.2848 10.3835 72.8291 10.3884L71.0171 10.3531L71.0679 15.0833L69.858 15.0963L69.7482 4.87031L72.9814 4.83567C73.3551 4.83166 73.6856 4.83724 73.9729 4.85239C74.2602 4.86754 74.5453 4.89867 74.8284 4.94577C75.116 4.98826 75.3651 5.05168 75.5756 5.13602C75.7861 5.2158 75.9833 5.32307 76.167 5.45782C76.3507 5.58802 76.4982 5.74596 76.6096 5.93162C76.7255 6.11724 76.8168 6.33958 76.8834 6.59865C76.9499 6.85316 76.9849 7.14219 76.9884 7.46574C76.9953 8.10372 76.8326 8.65465 76.5003 9.11853C76.1726 9.58235 75.702 9.90642 75.0888 10.0907C75.0889 10.0998 75.1353 10.1814 75.2281 10.3353C75.3209 10.4893 75.4301 10.6796 75.5555 10.9061C75.6855 11.128 75.7855 11.3138 75.8555 11.4635L77.548 15.0139Z" fill="#143D48"/>
<path d="M84.5865 15.8363L86.7708 5.96469L92.4314 7.21448L92.1587 8.22536L87.6997 7.24086L86.9849 10.4713L91.2236 11.4072L91.0006 12.415L86.7618 11.4792L85.9673 15.07L90.5731 16.087L90.2938 17.0964L84.5865 15.8363Z" fill="#143D48"/>
<path d="M108.535 24.9533L110.183 17.2734L110.371 16.5603L108.977 18.6056L105.47 23.5437L104.567 22.9034L110.421 14.6602L111.67 15.5455L109.88 24.1465L117.387 19.5966L118.603 20.4582L112.749 28.7014L111.812 28.0374L115.335 23.077L116.775 21.1317L116.169 21.5483L109.478 25.6213L108.535 24.9533Z" fill="#143D48"/>
<path d="M122.67 31.3451C121.65 32.1496 121.034 33.016 120.821 33.9444C120.612 34.87 120.869 35.7904 121.592 36.7055C122.316 37.6207 123.15 38.0802 124.094 38.0841C125.041 38.0916 126.026 37.6917 127.05 36.8844C128.094 36.0602 128.72 35.1867 128.925 34.2639C129.134 33.3448 128.881 32.4329 128.166 31.5285C127.451 30.624 126.617 30.1613 125.665 30.1403C124.713 30.1193 123.715 30.5209 122.67 31.3451ZM127.834 37.8764C127.229 38.3535 126.61 38.7056 125.976 38.9327C125.345 39.1634 124.725 39.2641 124.115 39.2346C123.511 39.2058 122.921 39.0327 122.345 38.7153C121.772 38.3951 121.251 37.9383 120.782 37.3449C120.149 36.5441 119.776 35.7236 119.664 34.8835C119.558 34.0441 119.696 33.2415 120.078 32.4757C120.467 31.7106 121.072 31.0034 121.895 30.3542C123.165 29.3522 124.429 28.8925 125.685 28.9752C126.941 29.0579 128.04 29.6945 128.981 30.8849C129.909 32.0575 130.263 33.2666 130.045 34.5122C129.834 35.7586 129.097 36.88 127.834 37.8764Z" fill="#143D48"/>
<path d="M136.425 44.6757L133.286 46.0294C133.361 46.2009 133.509 46.5562 133.732 47.0952C133.957 47.6385 134.133 48.0565 134.259 48.3493C134.605 49.1483 134.977 49.6478 135.376 49.8479C135.78 50.0461 136.27 50.0207 136.848 49.7716C137.354 49.5532 137.666 49.2402 137.782 48.8325C137.899 48.4248 137.805 47.8675 137.499 47.1605L136.425 44.6757ZM130.579 54.2548L130.036 52.9998L132.396 50.4635C133.028 49.7788 133.403 49.3541 133.52 49.1893C133.367 48.8929 133.201 48.5356 133.02 48.1173L132.351 46.4328L128.007 48.3063L127.527 47.1956L136.918 43.1454L138.201 46.1134C138.349 46.4564 138.472 46.7633 138.569 47.0341C138.666 47.3048 138.748 47.5798 138.814 47.859C138.886 48.1406 138.924 48.3948 138.927 48.6215C138.935 48.8464 138.913 49.0696 138.859 49.2911C138.81 49.5108 138.722 49.7078 138.594 49.8822C138.467 50.0608 138.297 50.2308 138.084 50.3922C137.875 50.5519 137.622 50.6958 137.325 50.8239C136.739 51.0766 136.168 51.1393 135.612 51.012C135.057 50.889 134.576 50.5803 134.169 50.0859C134.16 50.0895 134.103 50.1638 133.997 50.3089C133.891 50.4539 133.757 50.628 133.597 50.8312C133.443 51.0368 133.31 51.2007 133.199 51.323L130.579 54.2548Z" fill="#143D48"/>
<path d="M132.539 61.0538L142.488 59.2521L143.523 64.9558L142.485 65.0951L141.67 60.6021L138.414 61.1917L139.189 65.4627L138.174 65.6467L137.398 61.3756L133.78 62.031L134.622 66.672L133.583 66.8045L132.539 61.0538Z" fill="#143D48"/>
<path d="M137.969 86.8712C137.348 86.7692 136.846 86.4812 136.462 86.007C136.079 85.5329 135.932 85.0238 136.021 84.4797C136.112 83.9266 136.41 83.4929 136.914 83.1786C137.419 82.8643 137.977 82.7574 138.588 82.8579C139.204 82.9592 139.706 83.2495 140.094 83.7288C140.481 84.2081 140.631 84.7154 140.543 85.2505C140.453 85.7946 140.154 86.2257 139.644 86.5437C139.139 86.8625 138.581 86.9717 137.969 86.8712Z" fill="#143D48"/>
<path d="M127.935 100.723L136.784 105.614L133.974 110.685L133.082 110.137L135.295 106.142L132.4 104.542L130.296 108.339L129.393 107.839L131.496 104.042L128.277 102.263L125.992 106.389L125.103 105.835L127.935 100.723Z" fill="#143D48"/>
<path d="M116.436 116.761L117.339 115.744L122.592 116.634L121.129 111.476L121.983 110.515L123.636 116.601L129.4 117.388L128.488 118.415L123.721 117.689L124.943 122.407L124.104 123.353L122.662 117.729L116.436 116.761Z" fill="#143D48"/>
<path d="M110.801 121.541L111.783 120.833L117.772 129.123L115.099 131.049C114.692 131.343 114.294 131.565 113.903 131.718C113.513 131.87 113.128 131.951 112.747 131.961C112.367 131.972 112.001 131.881 111.649 131.691C111.298 131.5 110.982 131.211 110.702 130.823C110.47 130.502 110.291 130.192 110.166 129.895C110.044 129.601 109.975 129.291 109.959 128.966C109.943 128.64 109.998 128.32 110.124 128.004C110.253 127.692 110.47 127.362 110.774 127.013C111.078 126.67 111.47 126.326 111.95 125.979C112.331 125.705 112.8 125.404 113.355 125.076L110.801 121.541ZM112.469 126.895C112.106 127.156 111.821 127.415 111.613 127.672C111.405 127.929 111.27 128.158 111.208 128.36C111.142 128.565 111.131 128.778 111.173 129.001C111.212 129.225 111.271 129.413 111.352 129.563C111.434 129.717 111.547 129.891 111.688 130.087C112.027 130.556 112.436 130.787 112.914 130.779C113.388 130.775 113.897 130.576 114.44 130.184L116.154 128.949L113.924 125.863C113.205 126.37 112.72 126.714 112.469 126.895Z" fill="#143D48"/>
<path d="M100.977 127.687L105.115 136.911L104.03 137.397L100.322 129.133L96.2602 130.952L95.8667 129.974L100.977 127.687Z" fill="#143D48"/>
<path d="M90.3412 137.048C90.1021 135.771 89.6208 134.822 88.8972 134.202C88.1745 133.586 87.2397 133.385 86.0929 133.599C84.946 133.814 84.1516 134.338 83.7097 135.171C83.2632 136.006 83.1599 137.063 83.3998 138.345C83.6448 139.653 84.1282 140.612 84.8501 141.224C85.5675 141.836 86.4929 142.037 87.6263 141.825C88.7597 141.613 89.5567 141.091 90.0175 140.258C90.4782 139.426 90.5861 138.355 90.3412 137.048ZM82.1567 138.577C82.0149 137.82 81.9906 137.108 82.0837 136.442C82.1723 135.776 82.3714 135.18 82.6809 134.654C82.9867 134.133 83.4141 133.692 83.9629 133.33C84.5126 132.972 85.1592 132.724 85.9029 132.585C86.9063 132.397 87.8063 132.449 88.6027 132.741C89.3956 133.038 90.0425 133.533 90.5434 134.228C91.0408 134.928 91.3859 135.793 91.5789 136.823C91.8767 138.413 91.6972 139.745 91.0404 140.818C90.3836 141.891 89.3093 142.567 87.8176 142.846C86.3482 143.121 85.1123 142.872 84.1099 142.099C83.1039 141.332 82.4528 140.158 82.1567 138.577Z" fill="#143D48"/>
<path d="M72.1332 143.016L72.3928 139.608C72.2065 139.594 71.8229 139.56 71.2419 139.507C70.6564 139.453 70.2046 139.414 69.8865 139.39C69.0186 139.324 68.4033 139.421 68.0407 139.682C67.6777 139.947 67.4724 140.393 67.4246 141.02C67.3827 141.569 67.5151 141.991 67.8219 142.284C68.1287 142.577 68.666 142.752 69.434 142.811L72.1332 143.016ZM66.3677 133.384L67.7309 133.488L68.8805 136.756C69.193 137.635 69.3949 138.164 69.4862 138.345C69.8197 138.347 70.2136 138.366 70.668 138.4L72.4702 138.592L72.8295 133.875L74.036 133.967L73.2592 144.164L70.0351 143.919C69.6625 143.891 69.3338 143.857 69.0489 143.817C68.764 143.777 68.4825 143.721 68.2046 143.65C67.9218 143.583 67.6792 143.498 67.4767 143.396C67.2739 143.298 67.0868 143.174 66.9154 143.024C66.7437 142.878 66.6104 142.708 66.5155 142.514C66.4161 142.319 66.3445 142.089 66.3006 141.825C66.2563 141.566 66.2465 141.275 66.2711 140.952C66.3195 140.316 66.5294 139.782 66.9006 139.348C67.2673 138.914 67.7641 138.632 68.3911 138.502C68.3918 138.493 68.3526 138.407 68.2735 138.246C68.1943 138.084 68.1021 137.885 67.9967 137.649C67.8864 137.417 67.8029 137.223 67.7462 137.068L66.3677 133.384Z" fill="#143D48"/>
<path d="M59.4265 131.957L56.3951 141.602L50.8638 139.867L51.2231 138.884L55.5803 140.25L56.5723 137.094L52.4304 135.795L52.7399 134.81L56.8818 136.109L57.9845 132.601L53.4838 131.189L53.8496 130.208L59.4265 131.957Z" fill="#143D48"/>
<path d="M36.3559 120.804L34.0498 128.312L33.8009 129.006L35.3666 127.089L39.2878 122.474L40.1326 123.19L33.5869 130.895L32.4188 129.905L34.9468 121.491L27.0738 125.374L25.937 124.411L32.4827 116.705L33.3587 117.448L29.4198 122.085L27.8166 123.898L28.4565 123.535L35.4747 120.057L36.3559 120.804Z" fill="#143D48"/>
<path d="M22.8296 113.214C23.9151 112.5 24.6041 111.69 24.8966 110.784C25.1852 109.88 25.0088 108.941 24.3672 107.966C23.7255 106.992 22.9346 106.462 21.9942 106.376C21.0514 106.287 20.0353 106.6 18.946 107.316C17.8339 108.047 17.1354 108.863 16.8505 109.764C16.5631 110.662 16.7365 111.592 17.3706 112.555C18.0047 113.518 18.795 114.051 19.7415 114.155C20.6881 114.258 21.7174 113.944 22.8296 113.214ZM18.2505 106.26C18.8942 105.837 19.5415 105.539 20.1926 105.368C20.8411 105.193 21.468 105.146 22.0732 105.228C22.6721 105.309 23.2449 105.533 23.7915 105.899C24.3344 106.267 24.8138 106.768 25.2298 107.4C25.7913 108.252 26.0916 109.102 26.1307 109.948C26.1636 110.794 25.9565 111.582 25.5096 112.312C25.0563 113.04 24.3916 113.692 23.5156 114.268C22.1635 115.156 20.8652 115.505 19.6208 115.314C18.3763 115.123 17.3368 114.393 16.5022 113.126C15.6801 111.877 15.4314 110.642 15.7562 109.42C16.0746 108.196 16.906 107.143 18.2505 106.26Z" fill="#143D48"/>
<path d="M10.2812 98.7428L13.525 97.6657C13.466 97.4884 13.3487 97.1216 13.1732 96.5652C12.9962 96.0045 12.8573 95.5728 12.7566 95.2701C12.4817 94.4442 12.1541 93.9144 11.7737 93.6805C11.389 93.4482 10.8982 93.4311 10.3013 93.6293C9.77797 93.803 9.44052 94.088 9.28896 94.484C9.13739 94.8801 9.18321 95.4435 9.42641 96.1743L10.2812 98.7428ZM16.9347 89.705L17.3665 91.0022L14.7966 93.325C14.1072 93.9525 13.6969 94.3432 13.5657 94.4973C13.6923 94.8058 13.8276 95.1762 13.9715 95.6086L14.4917 97.3447L18.9811 95.8539L19.3632 97.0019L9.65771 100.225L8.63669 97.1569C8.51869 96.8023 8.42301 96.4859 8.34965 96.2077C8.27629 95.9296 8.21878 95.6485 8.17714 95.3647C8.12973 95.0779 8.11401 94.8214 8.12999 94.5952C8.14164 94.3704 8.18357 94.15 8.25575 93.934C8.32362 93.7194 8.42895 93.5307 8.57174 93.368C8.71309 93.2011 8.89695 93.0464 9.12334 92.904C9.34539 92.763 9.60996 92.6415 9.91704 92.5396C10.5225 92.3385 11.097 92.3254 11.6403 92.5003C12.1822 92.6709 12.6346 93.0201 12.9975 93.5479C13.0062 93.545 13.0696 93.4759 13.1879 93.3406C13.3062 93.2053 13.454 93.0433 13.6314 92.8548C13.8031 92.6633 13.9494 92.5115 14.0706 92.3992L16.9347 89.705Z" fill="#143D48"/>
<path d="M15.5714 82.7625L5.50436 83.6971L4.96729 77.9252L6.01314 77.8761L6.43621 82.4229L9.73064 82.117L9.32847 77.7949L10.3563 77.6995L10.7584 82.0216L14.4204 81.6816L13.9834 76.9851L15.0299 76.9429L15.5714 82.7625Z" fill="#143D48"/>
<circle cx="74.6831" cy="73.8174" r="50" transform="rotate(60 74.6831 73.8174)" fill="#143D48"/>
<path d="M86.4681 62.0323L62.8978 85.6025M62.8978 85.6025L80.5755 85.6025M62.8978 85.6025L62.8978 67.9248" stroke="white" stroke-width="2.3" stroke-linecap="round" stroke-linejoin="round"/>
</svg>
