<svg width="130" height="130" viewBox="0 0 130 130" fill="none" xmlns="http://www.w3.org/2000/svg">
<circle cx="65" cy="65" r="65" fill="#8F282D"/>
<path d="M56.9163 107.278C57.4008 105.68 57.4143 104.313 56.9569 103.176C56.4977 102.045 55.5504 101.262 54.1149 100.827C52.6795 100.391 51.4623 100.518 50.4636 101.207C49.4592 101.895 48.714 103.04 48.2277 104.644C47.7313 106.281 47.7136 107.663 48.1744 108.788C48.6297 109.912 49.5666 110.689 50.9853 111.119C52.4039 111.549 53.623 111.426 54.6425 110.749C55.662 110.073 56.4199 108.916 56.9163 107.278ZM46.6717 104.172C46.959 103.225 47.3534 102.398 47.855 101.693C48.3509 100.986 48.9315 100.425 49.5966 100.008C50.2545 99.5949 51.0039 99.3446 51.8448 99.2567C52.6841 99.1744 53.5692 99.2743 54.5 99.5565C55.756 99.9373 56.7519 100.53 57.4876 101.335C58.2159 102.143 58.6599 103.092 58.8195 104.182C58.9718 105.275 58.8524 106.466 58.4614 107.756C57.8579 109.746 56.8632 111.159 55.4773 111.994C54.0915 112.829 52.4649 112.964 50.5977 112.398C48.7585 111.84 47.4961 110.824 46.8107 109.348C46.1179 107.877 46.0716 106.152 46.6717 104.172Z" fill="white"/>
<path d="M44.2301 94.8248L35.9769 104.868L34.7954 103.897L42.1892 94.8996L37.7687 91.2668L38.6688 90.2546L44.2301 94.8248Z" fill="white"/>
<path d="M34.9616 85.1343L35.8265 86.3848L25.1358 93.7796L24.2708 92.5291L34.9616 85.1343Z" fill="white"/>
<path d="M16.9967 75.9339L16.5097 74.3826L30.3256 74.992L30.7995 76.5014L19.8057 84.8813L19.3187 83.33L26.3182 78.1017C27.2289 77.4228 28.0958 76.8097 28.919 76.2627C28.4734 76.3105 27.4024 76.3028 25.706 76.2396C22.9333 76.1521 20.0302 76.0502 16.9967 75.9339Z" fill="white"/>
<path d="M29.0048 64.5828L29.0098 66.1033L16.0108 66.1459L16.0059 64.6254L29.0048 64.5828Z" fill="white"/>
<path d="M26.2679 50.4798C22.4703 50.5644 20.3397 50.6004 19.8763 50.5876C19.8763 50.5876 21.5825 51.8801 24.9948 54.4649L26.2679 50.4798ZM32.021 50.2048L27.6317 50.3988L26.0536 55.3384L29.5014 58.0914L29.0307 59.5649L18.1423 50.8456L18.6157 49.3638L32.4971 48.7145L32.021 50.2048Z" fill="white"/>
<path d="M27.8088 38.7122L27.215 39.5409L24.3189 36.4603L25.1226 35.3386L27.8088 38.7122Z" fill="white"/>
<path d="M38.963 37.0948C40.4453 36.8102 41.803 36.2009 43.0362 35.2671C44.5543 34.1174 44.7898 32.8513 43.7427 31.4686C43.4031 31.0202 43.0076 30.7502 42.5559 30.6585C42.1055 30.5586 41.5025 30.6698 40.7469 30.9921L38.2943 32.0336C36.4195 32.8286 34.9957 32.5839 34.0229 31.2993C33.2765 30.3137 33.0616 29.3262 33.3781 28.3369C33.691 27.3428 34.4454 26.393 35.6412 25.4875C36.2671 25.0134 36.9047 24.6372 37.5538 24.3588C38.2029 24.0804 38.7986 23.9159 39.3409 23.8654L39.7388 25.1186C39.2949 25.1828 38.7625 25.3435 38.1414 25.6006C37.525 25.8543 36.9529 26.181 36.425 26.5807C34.7341 27.8612 34.3325 29.0877 35.2204 30.2602C35.5211 30.6572 35.8919 30.8799 36.3327 30.9282C36.7747 30.9684 37.3027 30.8552 37.9167 30.5887L40.2464 29.5741C41.2393 29.1382 42.121 28.9777 42.8914 29.0925C43.6584 29.2026 44.3496 29.664 44.9651 30.4768C45.7645 31.5325 46.043 32.5747 45.8005 33.6036C45.5592 34.6243 44.8826 35.5556 43.7709 36.3974C42.9395 37.0271 42.1354 37.5037 41.3588 37.8272C40.5833 38.1426 39.9179 38.3267 39.3627 38.3797L38.963 37.0948Z" fill="white"/>
<path d="M63.9497 29.1821L62.4229 29.2706L61.7489 17.6358L57.7565 17.8671L57.6788 16.5246L67.1902 15.9736L67.2679 17.316L63.2756 17.5473L63.9497 29.1821Z" fill="white"/>
<path d="M75.4777 23.737C74.9094 25.3073 74.8237 26.6721 75.2205 27.8313C75.6192 28.9851 76.5238 29.8172 77.9343 30.3276C79.3448 30.8381 80.5669 30.7756 81.6007 30.1402C82.6399 29.5069 83.4447 28.4023 84.015 26.8265C84.5972 25.2177 84.6879 23.8392 84.2871 22.6909C83.8919 21.5446 82.9973 20.7193 81.6033 20.2148C80.2094 19.7104 78.9855 19.7691 77.9317 20.391C76.8779 21.0128 76.0599 22.1282 75.4777 23.737ZM85.5439 27.3798C85.2069 28.311 84.7694 29.1154 84.2313 29.793C83.6987 30.4726 83.0893 31.003 82.4031 31.384C81.7243 31.7615 80.9627 31.9719 80.1183 32.0153C79.2758 32.0531 78.3973 31.9066 77.4827 31.5756C76.2485 31.129 75.2854 30.4844 74.5932 29.642C73.9086 28.796 73.5154 27.825 73.4136 26.7288C73.3193 25.6291 73.5014 24.4457 73.96 23.1785C74.6678 21.2225 75.7357 19.8642 77.1638 19.1036C78.5918 18.343 80.2232 18.2947 82.0579 18.9586C83.8651 19.6126 85.072 20.6943 85.6785 22.2037C86.2926 23.7095 86.2477 25.4349 85.5439 27.3798Z" fill="white"/>
<path d="M88.4154 37.6324L87.292 36.5563L96.3872 27.0611L99.4465 29.9915C99.912 30.4374 100.286 30.8893 100.57 31.3474C100.853 31.8054 101.046 32.2737 101.147 32.7522C101.248 33.2308 101.219 33.7142 101.06 34.2025C100.901 34.6908 100.608 35.1571 100.183 35.6014C99.83 35.9695 99.48 36.2671 99.1326 36.4942C98.7893 36.7171 98.4135 36.8765 98.0053 36.9723C97.5971 37.0681 97.1787 37.073 96.75 36.9869C96.3253 36.8965 95.8569 36.6994 95.3448 36.3955C94.841 36.0913 94.314 35.6758 93.7639 35.1489C93.3281 34.7315 92.8382 34.2095 92.2943 33.583L88.4154 37.6324ZM94.802 34.2812C95.2167 34.6784 95.6106 34.9787 95.9838 35.182C96.357 35.3853 96.6787 35.5027 96.9487 35.5342C97.223 35.5697 97.4957 35.5349 97.767 35.4296C98.0425 35.3283 98.2658 35.2096 98.4369 35.0733C98.6121 34.9327 98.8071 34.7503 99.0219 34.5261C99.5366 33.9887 99.7337 33.4188 99.613 32.8163C99.4965 32.2179 99.1272 31.6208 98.5052 31.025L96.544 29.1464L93.1576 32.6817C93.9661 33.4724 94.5143 34.0056 94.802 34.2812Z" fill="white"/>
<path d="M99.9605 55.6918L99.6437 54.1687L112.517 51.4914L113.379 55.639C113.511 56.27 113.563 56.8545 113.538 57.3925C113.512 57.9305 113.405 58.4255 113.218 58.8774C113.031 59.3293 112.733 59.7114 112.325 60.0236C111.917 60.3358 111.412 60.5546 110.81 60.6799C110.311 60.7837 109.854 60.8308 109.439 60.8214C109.03 60.8107 108.63 60.7293 108.239 60.5772C107.848 60.425 107.501 60.1921 107.196 59.8784C106.897 59.5636 106.623 59.1359 106.373 58.5954C106.129 58.0595 105.93 57.4186 105.775 56.6729C105.652 56.082 105.544 55.3744 105.45 54.55L99.9605 55.6918ZM107.122 56.5453C107.239 57.1075 107.394 57.5781 107.586 57.957C107.779 58.3358 107.978 58.6147 108.182 58.7936C108.388 58.9781 108.633 59.1038 108.916 59.1706C109.2 59.2431 109.452 59.2717 109.67 59.2562C109.894 59.2395 110.158 59.1996 110.462 59.1364C111.191 58.9848 111.676 58.6266 111.917 58.0617C112.16 57.5025 112.194 56.8012 112.018 55.958L111.465 53.299L106.672 54.2959C106.891 55.4054 107.041 56.1552 107.122 56.5453Z" fill="white"/>
<path d="M100.937 69.5108L101.082 67.9973L114.022 69.2416L113.876 70.7551L100.937 69.5108Z" fill="white"/>
<path d="M108.458 85.8346C108.847 84.9365 108.964 84.0679 108.81 83.2288C108.654 82.395 108.276 81.6601 107.676 81.024C107.077 80.388 106.298 79.8629 105.341 79.4487C104.626 79.1392 103.935 78.9425 103.269 78.8587C102.609 78.7771 101.981 78.8119 101.386 78.9629C100.796 79.1163 100.259 79.4137 99.7738 79.8552C99.2921 80.3043 98.8966 80.8865 98.5871 81.6018C98.1892 82.5213 98.0167 83.5767 98.0695 84.7679L96.7825 84.4887C96.6237 83.4687 96.8398 82.2758 97.4308 80.9099C97.8194 80.0119 98.3163 79.2692 98.9216 78.682C99.5298 78.1024 100.207 77.6963 100.952 77.4634C101.701 77.2383 102.504 77.1676 103.362 77.2514C104.225 77.3375 105.119 77.5806 106.043 77.9808C106.936 78.3671 107.702 78.8549 108.341 79.4441C108.98 80.0334 109.464 80.6836 109.795 81.3949C110.129 82.1139 110.29 82.8989 110.28 83.7498C110.269 84.6007 110.073 85.4671 109.691 86.349C109.112 87.688 108.327 88.6893 107.338 89.3529L106.438 88.3123C107.352 87.6607 108.025 86.8348 108.458 85.8346Z" fill="white"/>
<path d="M86.245 95.101L87.569 93.7899L95.4699 94.6988L95.5771 93.1208L91.947 89.4548L93.0337 88.3788L102.18 97.6155L101.093 98.6916L96.6037 94.1575L97.0339 102.711L95.6787 104.053L95.3072 96.1834L86.245 95.101Z" fill="white"/>
<path d="M71.4874 107.572C71.3161 106.781 71.4233 106.045 71.8089 105.362C72.1945 104.678 72.7338 104.262 73.4267 104.112C74.1311 103.959 74.7903 104.11 75.4043 104.565C76.0184 105.019 76.4098 105.636 76.5785 106.415C76.7485 107.199 76.6384 107.936 76.2484 108.626C75.8583 109.316 75.3225 109.735 74.641 109.883C73.9481 110.033 73.2912 109.879 72.6701 109.42C72.0503 108.966 71.6561 108.35 71.4874 107.572Z" fill="white"/>
</svg>
