<svg width="130" height="131" viewBox="0 0 130 131" fill="none" xmlns="http://www.w3.org/2000/svg">
<path d="M118.882 73.7008L114.588 72.7845L114.085 75.1455C113.88 76.1031 113.903 76.8588 114.152 77.4126C114.406 77.9675 114.908 78.3248 115.657 78.4846C116.436 78.6508 117.037 78.5074 117.458 78.0541C117.884 77.607 118.213 76.8359 118.447 75.7408L118.882 73.7008ZM119.944 73.9274L119.427 76.3494C119.259 77.1389 119.269 77.7642 119.459 78.2253C119.648 78.6864 120.094 78.992 120.797 79.1419C121.505 79.293 122.043 79.1549 122.411 78.7275C122.783 78.3063 123.077 77.5888 123.294 76.5752L123.688 74.7262L119.944 73.9274ZM125.086 73.6424L124.394 76.882C124.085 78.3337 123.634 79.3612 123.042 79.9645C122.449 80.5728 121.668 80.7738 120.7 80.5673C120.558 80.5368 120.417 80.4962 120.279 80.4454C120.145 80.4008 119.976 80.3169 119.774 80.1937C119.57 80.0757 119.39 79.9334 119.233 79.767C119.082 79.6016 118.942 79.3745 118.812 79.0858C118.686 78.8033 118.604 78.4851 118.568 78.1312C118.263 78.8597 117.82 79.3668 117.237 79.6525C116.654 79.9382 116.011 80.0061 115.308 79.8561C114.284 79.6376 113.564 79.1324 113.147 78.3405C112.729 77.5537 112.662 76.4981 112.944 75.1737L113.785 71.2312L125.086 73.6424Z" fill="#143D48"/>
<path d="M114.045 89.7995C112.775 89.0318 111.6 88.7204 110.52 88.8653C109.445 89.0129 108.563 89.6573 107.873 90.7984C107.184 91.9396 107.026 93.0159 107.401 94.0273C107.773 95.0432 108.596 95.9363 109.871 96.7067C111.173 97.4932 112.359 97.8114 113.429 97.6611C114.497 97.5152 115.372 96.8784 116.054 95.7506C116.735 94.6229 116.896 93.5457 116.537 92.5191C116.177 91.4926 115.347 90.586 114.045 89.7995ZM109.124 97.9437C108.37 97.4885 107.745 96.9675 107.247 96.3809C106.747 95.7987 106.391 95.1755 106.177 94.5112C105.966 93.854 105.915 93.1535 106.023 92.4098C106.136 91.6688 106.416 90.9283 106.864 90.1883C107.467 89.1898 108.196 88.4619 109.05 88.0045C109.907 87.5543 110.821 87.3799 111.795 87.4812C112.77 87.5897 113.77 87.9537 114.795 88.5732C116.378 89.5294 117.377 90.696 117.792 92.0729C118.208 93.4497 117.967 94.8804 117.07 96.3648C116.186 97.8269 115.034 98.6915 113.613 98.9586C112.194 99.2329 110.697 98.8945 109.124 97.9437Z" fill="#143D48"/>
<path d="M102.469 105.227C101.542 104.068 100.547 103.369 99.4841 103.132C98.4243 102.899 97.3737 103.199 96.3322 104.031C95.2906 104.864 94.7709 105.819 94.7728 106.898C94.7707 107.98 95.2347 109.102 96.1647 110.266C97.1143 111.454 98.1173 112.162 99.1738 112.391C100.226 112.624 101.267 112.328 102.296 111.506C103.326 110.683 103.849 109.728 103.867 108.64C103.884 107.553 103.418 106.415 102.469 105.227ZM95.0357 111.168C94.4862 110.481 94.0794 109.776 93.8153 109.053C93.5472 108.334 93.428 107.626 93.4575 106.929C93.4863 106.239 93.6802 105.564 94.0392 104.904C94.4015 104.247 94.9203 103.649 95.5956 103.11C96.507 102.381 97.4426 101.95 98.4024 101.816C99.3615 101.69 100.28 101.842 101.158 102.274C102.036 102.713 102.849 103.4 103.597 104.336C104.751 105.78 105.285 107.22 105.199 108.656C105.113 110.091 104.393 111.35 103.038 112.433C101.703 113.5 100.323 113.913 98.8975 113.672C97.4709 113.439 96.1836 112.604 95.0357 111.168Z" fill="#143D48"/>
<path d="M77.2889 112.736L78.8443 112.167L84.8922 115.828L85.5633 114.592L83.9874 110.285L85.264 109.818L89.2345 120.669L87.9579 121.136L86.0089 115.81L83.189 122.881L81.5969 123.464L84.211 116.967L77.2889 112.736Z" fill="#143D48"/>
<path d="M53.7496 112.957L55.266 113.17L59.944 123.009L60.2559 123.597C60.3667 122.508 60.4817 121.538 60.6012 120.687L61.5327 114.049L62.7861 114.225L61.1803 125.668L59.6871 125.458L54.9936 115.617L54.674 115.027C54.4792 116.678 54.3637 117.632 54.3275 117.89L53.3894 124.574L52.1438 124.4L53.7496 112.957Z" fill="#143D48"/>
<path d="M43.2919 115.518C43.9807 114.203 44.2199 113.011 44.0095 111.942C43.7967 110.878 43.0997 110.037 41.9186 109.418C40.7376 108.8 39.6537 108.708 38.667 109.144C37.6757 109.577 36.8344 110.453 36.1432 111.773C35.4374 113.12 35.1922 114.323 35.4074 115.382C35.6181 116.439 36.307 117.274 37.4743 117.885C38.6415 118.497 39.7265 118.592 40.7292 118.17C41.7319 117.749 42.5862 116.865 43.2919 115.518ZM34.8629 111.102C35.2714 110.322 35.7532 109.666 36.3084 109.134C36.859 108.599 37.4593 108.205 38.1094 107.952C38.7525 107.701 39.4485 107.607 40.1975 107.67C40.944 107.738 41.7002 107.972 42.4661 108.373C43.4995 108.915 44.2705 109.598 44.7791 110.423C45.2806 111.25 45.5105 112.152 45.4687 113.13C45.4199 114.11 45.1175 115.131 44.5616 116.192C43.7036 117.829 42.6001 118.898 41.2512 119.396C39.9022 119.895 38.4595 119.742 36.9232 118.937C35.4099 118.144 34.4767 117.047 34.1235 115.645C33.7633 114.245 34.0097 112.731 34.8629 111.102Z" fill="#143D48"/>
<path d="M30.6385 100.279L24.1052 110.426L23.1879 109.35L28.9018 100.722L19.6387 104.861L18.6504 103.702L24.2654 95.271L14.8206 99.5337L13.9033 98.4576L24.9876 93.6494L25.9455 94.7731L20.3796 103.213L29.6857 99.161L30.6385 100.279Z" fill="#143D48"/>
<path d="M10.8244 74.1112C11.528 73.9642 12.1821 74.0644 12.7867 74.4117C13.3913 74.759 13.758 75.2411 13.8868 75.858C14.0178 76.4851 13.8792 77.07 13.4711 77.6128C13.0631 78.1556 12.5124 78.4994 11.819 78.6442C11.1205 78.7901 10.4659 78.6874 9.85513 78.3361C9.24437 77.9847 8.87564 77.5057 8.74894 76.899C8.6201 76.2821 8.76174 75.6992 9.17384 75.1502C9.58085 74.6023 10.131 74.256 10.8244 74.1112Z" fill="#143D48"/>
<path d="M11.4519 54.5368L15.7113 55.6022L16.2971 53.2603C16.5347 52.3104 16.5386 51.5544 16.3087 50.9922C16.0738 50.4288 15.585 50.0542 14.8423 49.8684C14.0692 49.675 13.4641 49.7975 13.027 50.2358C12.5861 50.6678 12.2298 51.4269 11.9581 52.5132L11.4519 54.5368ZM10.3984 54.2733L10.9994 51.8708C11.1953 51.0876 11.2067 50.4623 11.0337 49.9949C10.8607 49.5275 10.4256 49.2066 9.7283 49.0322C9.02597 48.8565 8.48341 48.9758 8.10061 49.3901C7.71402 49.7981 7.39498 50.5048 7.14348 51.5103L6.68472 53.3444L10.3984 54.2733ZM5.25022 54.3788L6.05401 51.1653C6.41419 49.7253 6.90065 48.7142 7.51337 48.1319C8.12736 47.5446 8.91436 47.371 9.87437 47.6111C10.0158 47.6465 10.1548 47.692 10.2912 47.7476C10.4238 47.7969 10.5893 47.8866 10.7876 48.0167C10.9872 48.1418 11.1621 48.2902 11.3124 48.462C11.4577 48.6326 11.5903 48.8644 11.7103 49.1575C11.8264 49.4442 11.8965 49.7651 11.9205 50.1201C12.2502 49.4026 12.7114 48.9113 13.3038 48.6461C13.8963 48.3809 14.5412 48.3355 15.2385 48.5099C16.2541 48.7639 16.9563 49.2939 17.3453 50.0999C17.7355 50.9008 17.7664 51.9581 17.4378 53.2718L16.4596 57.1826L5.25022 54.3788Z" fill="#143D48"/>
<path d="M16.8477 38.6167C18.0906 39.4282 19.254 39.7804 20.3378 39.6732C21.4174 39.5632 22.3216 38.95 23.0505 37.8336C23.7795 36.7172 23.9744 35.647 23.6352 34.6232C23.2989 33.5949 22.5071 32.6736 21.2598 31.8593C19.9864 31.0278 18.8121 30.6685 17.737 30.7814C16.6647 30.8899 15.7683 31.4958 15.0479 32.5991C14.3275 33.7025 14.129 34.7734 14.4524 35.8118C14.7758 36.8503 15.5743 37.7852 16.8477 38.6167ZM22.05 30.6491C22.787 31.1303 23.3939 31.6727 23.8706 32.2763C24.3502 32.8756 24.6849 33.5109 24.8748 34.1822C25.0632 34.8464 25.0901 35.5482 24.9556 36.2877C24.8167 37.0243 24.511 37.7546 24.0383 38.4785C23.4005 39.4554 22.6466 40.1575 21.7767 40.5847C20.9053 41.0048 19.985 41.1472 19.0159 41.012C18.0452 40.8697 17.0583 40.471 16.0553 39.8161C14.5071 38.8052 13.5494 37.6046 13.1821 36.214C12.8149 34.8235 13.1054 33.4021 14.0536 31.9499C14.9876 30.5195 16.1693 29.6956 17.5988 29.4782C19.0268 29.2536 20.5105 29.6439 22.05 30.6491Z" fill="#143D48"/>
<path d="M28.9548 23.6021C29.8405 24.7933 30.8105 25.5259 31.8646 25.8C32.9156 26.0699 33.976 25.807 35.0459 25.0114C36.1159 24.2157 36.6686 23.2789 36.7043 22.2009C36.7441 21.1198 36.3196 19.9816 35.4307 18.7863C34.5232 17.5659 33.5455 16.8229 32.4976 16.5571C31.4539 16.2883 30.4033 16.547 29.3459 17.3334C28.2886 18.1197 27.7321 19.056 27.6767 20.1422C27.6212 21.2284 28.0472 22.3818 28.9548 23.6021ZM36.5905 17.9238C37.1157 18.6302 37.4977 19.3489 37.7364 20.0801C37.9792 20.8082 38.0737 21.52 38.0199 22.2156C37.9671 22.904 37.7497 23.5718 37.3679 24.2193C36.983 24.8625 36.4437 25.4421 35.7499 25.958C34.8137 26.6542 33.8636 27.0524 32.8997 27.1526C31.9368 27.2456 31.024 27.0611 30.1613 26.5993C29.2997 26.1301 28.5114 25.4149 27.7966 24.4537C26.6932 22.97 26.2096 21.5123 26.3457 20.0805C26.4817 18.6488 27.2456 17.4154 28.6373 16.3805C30.0082 15.361 31.4018 14.9964 32.8184 15.2866C34.236 15.5694 35.4934 16.4485 36.5905 17.9238Z" fill="#143D48"/>
<path d="M54.3815 16.9755L52.8072 17.49L46.8906 13.6211L46.177 14.8324L47.6017 19.1914L46.3096 19.6137L42.7199 8.63079L44.012 8.20847L45.7741 13.5997L48.8389 6.63087L50.4503 6.10419L47.6112 12.5061L54.3815 16.9755Z" fill="#143D48"/>
<path d="M77.9141 17.5758L76.406 17.3102L72.074 7.31374L71.7828 6.7151C71.6341 7.7995 71.4853 8.76488 71.3362 9.61124L70.1738 16.2128L68.9273 15.9933L70.9312 4.6137L72.4161 4.87519L76.7636 14.8744L77.0625 15.4744C77.3147 13.8318 77.4634 12.8822 77.5085 12.6258L78.6791 5.97803L79.9179 6.19616L77.9141 17.5758Z" fill="#143D48"/>
<path d="M88.4546 15.3813C87.7203 16.6713 87.4397 17.854 87.6127 18.9294C87.7883 20.0001 88.4555 20.8653 89.6143 21.5249C90.7731 22.1844 91.8531 22.3137 92.8544 21.9127C93.8602 21.5144 94.7315 20.6679 95.4684 19.3733C96.2207 18.0516 96.5077 16.8576 96.3295 15.7913C96.1559 14.7276 95.4964 13.8699 94.3512 13.2181C93.206 12.5662 92.125 12.4334 91.1082 12.8195C90.0914 13.2056 89.2068 14.0596 88.4546 15.3813ZM96.7245 20.0883C96.2891 20.8532 95.7847 21.492 95.2112 22.0047C94.6423 22.5199 94.0286 22.8927 93.3701 23.1231C92.7186 23.3517 92.0198 23.4213 91.2735 23.3322C90.5297 23.2385 89.7822 22.9778 89.0308 22.5501C88.0168 21.973 87.2701 21.2633 86.7906 20.4211C86.3182 19.5769 86.12 18.667 86.1958 17.6914C86.2788 16.7139 86.6165 15.7045 87.2091 14.6634C88.1237 13.0565 89.2638 12.0274 90.6293 11.5761C91.9949 11.1248 93.4313 11.3281 94.9386 12.186C96.4233 13.0311 97.3177 14.1604 97.6218 15.574C97.933 16.9856 97.6339 18.4904 96.7245 20.0883Z" fill="#143D48"/>
<path d="M100.569 31.0522L107.452 21.1388L108.331 22.2463L102.32 30.6695L111.722 26.8564L112.669 28.0496L106.763 36.2791L116.351 32.3484L117.23 33.4559L105.985 37.8746L105.067 36.7181L110.924 28.4774L101.482 32.2025L100.569 31.0522Z" fill="#143D48"/>
<path d="M119.459 57.8948C118.75 58.0171 118.1 57.8942 117.508 57.5261C116.916 57.1579 116.566 56.6633 116.459 56.0423C116.35 55.411 116.509 54.8313 116.936 54.303C117.362 53.7748 117.925 53.4504 118.623 53.3299C119.326 53.2084 119.977 53.3339 120.575 53.7063C121.173 54.0787 121.525 54.5703 121.63 55.181C121.737 55.8021 121.576 56.3797 121.145 56.914C120.719 57.4473 120.157 57.7743 119.459 57.8948Z" fill="#143D48"/>
<path d="M50.2952 73.6043L79.1627 56.9377M79.1627 56.9377L62.0874 52.3623M79.1627 56.9377L74.5874 74.013" stroke="#143D48" stroke-width="2.3" stroke-linecap="round" stroke-linejoin="round"/>
</svg>
